<?xml version="1.0" encoding="UTF-8"?>
<svg version="1.1" xmlns="http://www.w3.org/2000/svg" width="229" height="404">
<path d="M0 0 C2.18542426 -0.00217095 4.37032981 -0.02032303 6.55566406 -0.03930664 C17.808369 -0.08597254 28.78797746 0.54343609 39.39941406 4.62280273 C41.12998047 5.27635742 41.12998047 5.27635742 42.89550781 5.94311523 C43.94867188 6.35303711 45.00183594 6.76295898 46.08691406 7.18530273 C47.71128388 7.79116167 49.33615887 8.39567118 50.96191406 8.99780273 C51.99316406 9.38967773 53.02441406 9.78155273 54.08691406 10.18530273 C54.08691406 10.84530273 54.08691406 11.50530273 54.08691406 12.18530273 C54.8075 12.4547168 55.52808594 12.72413086 56.27050781 13.00170898 C66.46003009 17.28385219 74.25631596 24.63436885 82.08691406 32.18530273 C83.27800781 33.26424805 83.27800781 33.26424805 84.49316406 34.36499023 C101.98599077 50.6875222 112.24911453 75.2410193 113.24511719 98.95141602 C113.28226178 102.80223463 113.2625546 106.64717432 113.21191406 110.49780273 C113.20184624 111.83568653 113.19272723 113.1735778 113.18457031 114.51147461 C113.1612865 117.73628236 113.12858816 120.96068927 113.08691406 124.18530273 C92.94999616 125.14155606 72.86511597 125.31368312 52.71075439 125.25396729 C48.78731858 125.24350313 44.86387561 125.23912169 40.94042969 125.23413086 C33.32257262 125.22359294 25.70474932 125.20666292 18.08691406 125.18530273 C17.91675781 123.89495117 17.74660156 122.60459961 17.57128906 121.27514648 C17.32726456 119.5575894 17.08242979 117.84014729 16.83691406 116.12280273 C16.72734375 115.27524414 16.61777344 114.42768555 16.50488281 113.55444336 C15.67055826 107.86786284 14.14315141 104.04118397 11.08691406 99.18530273 C11.08691406 98.52530273 11.08691406 97.86530273 11.08691406 97.18530273 C5.95907353 94.70408957 0.39183297 93.34364257 -5.21386719 94.77124023 C-16.63343977 99.38640428 -24.99177247 109.26844377 -29.78808594 120.37280273 C-34.02034817 130.8413454 -34.33405727 141.74180064 -29.91308594 152.18530273 C-21.48146433 168.20801046 -5.38879712 174.25943249 10.71191406 180.24780273 C36.79588863 189.96104275 54.76050868 203.56712929 67.36425781 228.73608398 C75.65252447 247.34558837 74.34856485 267.73470277 67.91894531 286.61499023 C66.74645731 289.53672409 65.47191174 292.35861157 64.08691406 295.18530273 C63.64605469 296.10569336 63.20519531 297.02608398 62.75097656 297.97436523 C52.4597957 318.15872549 35.41087131 331.77100199 14.14941406 338.99780273 C-0.55436915 342.96473617 -14.74802522 341.14218317 -28.09667969 333.90795898 C-38.05991344 327.81394223 -44.68898433 320.63350594 -49.91308594 310.18530273 C-56.84308594 309.85530273 -63.77308594 309.52530273 -70.91308594 309.18530273 C-62.39612134 328.02089753 -50.19437668 342.99571438 -30.57714844 351.19311523 C-11.06323262 358.4607613 10.03495402 358.29790994 29.17675781 349.69311523 C37.18479901 345.54398248 44.13058916 340.60962537 50.30175781 334.03295898 C51.93898185 332.33841419 53.60552178 330.94070625 55.46191406 329.49780273 C73.72898729 313.92315527 82.95465015 288.92284625 85.82519531 265.74780273 C86.36594512 258.38714859 86.09277911 251.35266889 84.96191406 244.06030273 C84.83647217 243.2449707 84.71103027 242.42963867 84.58178711 241.58959961 C83.39236158 234.63332405 81.16427615 228.51662421 78.29394531 222.09155273 C77.08691406 219.18530273 77.08691406 219.18530273 77.08691406 216.18530273 C81.15284768 217.71469061 83.30885344 220.5652141 85.83691406 223.93530273 C86.27229492 224.513125 86.70767578 225.09094727 87.15625 225.6862793 C99.85219189 242.88932693 106.81249972 261.85403404 108.08691406 283.18530273 C108.14105469 283.97807617 108.19519531 284.77084961 108.25097656 285.58764648 C109.1505137 311.46978316 100.35252319 337.8370715 83.08691406 357.18530273 C82.42433594 357.98967773 81.76175781 358.79405273 81.07910156 359.62280273 C62.84569406 381.15302562 36.00148541 393.77155277 8.08691406 396.18530273 C-25.04639969 398.24235991 -53.82786612 389.0187348 -78.91308594 367.18530273 C-97.28264997 350.80998801 -110.14807946 327.78490493 -112.91308594 303.18530273 C-113.13678202 297.45212033 -113.10381008 291.73378405 -113.03808594 285.99780273 C-113.02802991 284.45809505 -113.01890872 282.91838097 -113.01074219 281.37866211 C-112.98895062 277.64740686 -112.95456736 273.9163972 -112.91308594 270.18530273 C-105.10396434 270.0518254 -97.29479841 269.92132176 -89.48557186 269.79415131 C-85.85551024 269.73495346 -82.22546789 269.67490211 -78.59545898 269.61254883 C-58.36591124 269.26588798 -38.14568023 269.1157202 -17.91308594 269.18530273 C-17.81116943 270.38791748 -17.70925293 271.59053223 -17.60424805 272.82958984 C-16.73056681 282.79273143 -15.71571215 291.4943655 -8.22558594 298.81030273 C-3.04151118 300.96218282 1.8326445 301.18890046 7.22753906 299.52514648 C18.73599764 294.29196945 25.89865165 284.17553182 30.46191406 272.68530273 C33.74437051 262.72474522 34.31833896 252.21416645 29.86035156 242.51733398 C21.47784837 227.70226818 8.40943272 222.02326036 -6.91308594 216.18530273 C-22.79665091 210.12032152 -36.53438309 204.21732033 -48.91308594 192.18530273 C-50.07130859 191.13729492 -50.07130859 191.13729492 -51.25292969 190.06811523 C-61.31689649 180.67507956 -67.03362445 169.26866881 -70.91308594 156.18530273 C-71.15929687 155.36932617 -71.40550781 154.55334961 -71.65917969 153.71264648 C-76.79805542 133.050822 -70.83683147 110.96786305 -60.59667969 92.90795898 C-57.65444058 88.14986001 -54.56183783 83.43396203 -50.91308594 79.18530273 C-50.25308594 79.18530273 -49.59308594 79.18530273 -48.91308594 79.18530273 C-48.69136719 78.62456055 -48.46964844 78.06381836 -48.24121094 77.48608398 C-41.59785026 65.97743857 -25.49330199 59.3557386 -13.53808594 55.74780273 C1.18382706 52.24258535 14.80187986 53.27544669 28.07128906 60.90014648 C32.52091386 63.90825082 36.4823457 67.1910513 40.08691406 71.18530273 C40.663125 71.80405273 41.23933594 72.42280273 41.83300781 73.06030273 C45.50775603 77.09412198 47.55491138 80.12129738 50.08691406 85.18530273 C56.68691406 85.18530273 63.28691406 85.18530273 70.08691406 85.18530273 C63.88542717 67.35602791 50.89861277 54.37522249 34.33300781 45.75170898 C16.33618648 37.12449876 -3.31864777 36.04962143 -22.22558594 42.37280273 C-33.71536185 46.90305724 -42.73251108 53.2024149 -51.48583984 61.78881836 C-52.85625875 63.12970035 -54.24949154 64.44714493 -55.64355469 65.76342773 C-61.21904941 71.12804898 -65.74552735 76.67607137 -69.91308594 83.18530273 C-70.66332031 84.26618164 -70.66332031 84.26618164 -71.42871094 85.36889648 C-84.73203365 105.56894176 -88.9103141 131.86824173 -84.33691406 155.37011719 C-83.11682276 160.98239792 -81.21335334 166.22587633 -78.99902344 171.51342773 C-78.09165322 173.74595015 -77.4165652 175.83573284 -76.91308594 178.18530273 C-80.16318525 177.94287108 -81.08006528 177.01280124 -83.39355469 174.62280273 C-84.31103207 173.48905076 -85.21244412 172.34217887 -86.10058594 171.18530273 C-86.81915771 170.25403564 -86.81915771 170.25403564 -87.55224609 169.30395508 C-105.04515679 145.92406284 -111.25152385 117.2941853 -107.14135742 88.47070312 C-102.399315 60.31011531 -85.98447674 36.99912579 -63.85058594 19.56030273 C-57.68581321 15.18530273 -57.68581321 15.18530273 -54.91308594 15.18530273 C-54.58308594 14.52530273 -54.25308594 13.86530273 -53.91308594 13.18530273 C-37.20989468 3.45081303 -19.13185104 -0.00212105 0 0 Z " fill="#52B966" transform="translate(112.9130859375,-0.185302734375)"/>
<path d="M0 0 C2.18542426 -0.00217095 4.37032981 -0.02032303 6.55566406 -0.03930664 C17.808369 -0.08597254 28.78797746 0.54343609 39.39941406 4.62280273 C41.12998047 5.27635742 41.12998047 5.27635742 42.89550781 5.94311523 C43.94867188 6.35303711 45.00183594 6.76295898 46.08691406 7.18530273 C47.71128388 7.79116167 49.33615887 8.39567118 50.96191406 8.99780273 C51.99316406 9.38967773 53.02441406 9.78155273 54.08691406 10.18530273 C54.08691406 10.84530273 54.08691406 11.50530273 54.08691406 12.18530273 C54.8075 12.4547168 55.52808594 12.72413086 56.27050781 13.00170898 C66.46003009 17.28385219 74.25631596 24.63436885 82.08691406 32.18530273 C83.27800781 33.26424805 83.27800781 33.26424805 84.49316406 34.36499023 C101.98599077 50.6875222 112.24911453 75.2410193 113.24511719 98.95141602 C113.28226178 102.80223463 113.2625546 106.64717432 113.21191406 110.49780273 C113.20184624 111.83568653 113.19272723 113.1735778 113.18457031 114.51147461 C113.1612865 117.73628236 113.12858816 120.96068927 113.08691406 124.18530273 C92.94999616 125.14155606 72.86511597 125.31368312 52.71075439 125.25396729 C48.78731858 125.24350313 44.86387561 125.23912169 40.94042969 125.23413086 C33.32257262 125.22359294 25.70474932 125.20666292 18.08691406 125.18530273 C17.91675781 123.89495117 17.74660156 122.60459961 17.57128906 121.27514648 C17.32726456 119.5575894 17.08242979 117.84014729 16.83691406 116.12280273 C16.67255859 114.85146484 16.67255859 114.85146484 16.50488281 113.55444336 C15.67055826 107.86786284 14.14315141 104.04118397 11.08691406 99.18530273 C11.08691406 98.52530273 11.08691406 97.86530273 11.08691406 97.18530273 C5.95907353 94.70408957 0.39183297 93.34364257 -5.21386719 94.77124023 C-16.63343977 99.38640428 -24.99177247 109.26844377 -29.78808594 120.37280273 C-34.02034817 130.8413454 -34.33405727 141.74180064 -29.91308594 152.18530273 C-19.88004825 171.2511999 2.1310266 177.30632841 21.08691406 184.18530273 C21.08691406 184.51530273 21.08691406 184.84530273 21.08691406 185.18530273 C19.57211708 184.94415489 19.57211708 184.94415489 18.02671814 184.69813538 C14.32369008 184.21612317 10.78109985 184.02861614 7.05004883 183.97998047 C6.38578384 183.97008087 5.72151886 183.96018127 5.03712463 183.94998169 C2.86755796 183.91869529 0.69796948 183.89374109 -1.47167969 183.86889648 C-2.98625723 183.84829847 -4.50082939 183.8273013 -6.01539612 183.80592346 C-9.98220434 183.75099657 -13.94906188 183.70145901 -17.91595459 183.65307617 C-21.97168312 183.60264519 -26.02734091 183.54707239 -30.08300781 183.49194336 C-38.0263072 183.38472175 -45.96966616 183.28319842 -53.91308594 183.18530273 C-53.58308594 184.50530273 -53.25308594 185.82530273 -52.91308594 187.18530273 C-62.90140754 179.93683324 -67.51602745 167.64177933 -70.91308594 156.18530273 C-71.15929687 155.36932617 -71.40550781 154.55334961 -71.65917969 153.71264648 C-76.79805542 133.050822 -70.83683147 110.96786305 -60.59667969 92.90795898 C-57.65444058 88.14986001 -54.56183783 83.43396203 -50.91308594 79.18530273 C-50.25308594 79.18530273 -49.59308594 79.18530273 -48.91308594 79.18530273 C-48.58050781 78.34418945 -48.58050781 78.34418945 -48.24121094 77.48608398 C-41.59785026 65.97743857 -25.49330199 59.3557386 -13.53808594 55.74780273 C1.18382706 52.24258535 14.80187986 53.27544669 28.07128906 60.90014648 C32.52091386 63.90825082 36.4823457 67.1910513 40.08691406 71.18530273 C40.663125 71.80405273 41.23933594 72.42280273 41.83300781 73.06030273 C45.50775603 77.09412198 47.55491138 80.12129738 50.08691406 85.18530273 C56.68691406 85.18530273 63.28691406 85.18530273 70.08691406 85.18530273 C63.88542717 67.35602791 50.89861277 54.37522249 34.33300781 45.75170898 C16.33618648 37.12449876 -3.31864777 36.04962143 -22.22558594 42.37280273 C-33.71536185 46.90305724 -42.73251108 53.2024149 -51.48583984 61.78881836 C-52.85625875 63.12970035 -54.24949154 64.44714493 -55.64355469 65.76342773 C-61.21904941 71.12804898 -65.74552735 76.67607137 -69.91308594 83.18530273 C-70.66332031 84.26618164 -70.66332031 84.26618164 -71.42871094 85.36889648 C-84.73203365 105.56894176 -88.9103141 131.86824173 -84.33691406 155.37011719 C-83.11682276 160.98239792 -81.21335334 166.22587633 -78.99902344 171.51342773 C-78.09165322 173.74595015 -77.4165652 175.83573284 -76.91308594 178.18530273 C-80.16318525 177.94287108 -81.08006528 177.01280124 -83.39355469 174.62280273 C-84.31103207 173.48905076 -85.21244412 172.34217887 -86.10058594 171.18530273 C-86.81915771 170.25403564 -86.81915771 170.25403564 -87.55224609 169.30395508 C-105.04515679 145.92406284 -111.25152385 117.2941853 -107.14135742 88.47070312 C-102.399315 60.31011531 -85.98447674 36.99912579 -63.85058594 19.56030273 C-57.68581321 15.18530273 -57.68581321 15.18530273 -54.91308594 15.18530273 C-54.58308594 14.52530273 -54.25308594 13.86530273 -53.91308594 13.18530273 C-37.20989468 3.45081303 -19.13185104 -0.00212105 0 0 Z " fill="#119DD3" transform="translate(112.9130859375,-0.185302734375)"/>
</svg>
